<?xml version="1.0" encoding="UTF-8"?>
<svg id="Layer_2" data-name="Layer 2" xmlns="http://www.w3.org/2000/svg" viewBox="0 0 48 48">
  <defs>
    <style>
      .cls-1 {
        fill: #0e3878;
      }
    </style>
  </defs>
  <g id="Text">
    <g id="facebook">
      <path class="cls-1" d="M0,0v48h21.33v-21.31h-4.55v-2.85h4.55v-3.19c0-2.26.66-4.08,1.98-5.47,1.32-1.39,3.22-2.08,5.71-2.08.97,0,1.9.13,2.8.39.9.26,1.66.66,2.27,1.21l-1.16,2.56c-.48-.42-1.05-.73-1.69-.94-.65-.21-1.34-.31-2.08-.31-1.45,0-2.56.4-3.34,1.21-.77.81-1.16,2-1.16,3.58v3.05h7.84v2.85h-7.74v21.31h23.23V0H0Z"/>
    </g>
  </g>
</svg>