<?xml version="1.0" encoding="UTF-8"?>
<svg id="Layer_2" data-name="Layer 2" xmlns="http://www.w3.org/2000/svg" viewBox="0 0 79.27 76.89">
  <defs>
    <style>
      .cls-1 {
        letter-spacing: .13em;
      }

      .cls-1, .cls-2 {
        font-family: Montserrat-Regular, Montserrat;
        font-size: 12px;
        font-variation-settings: 'wght' 400;
      }

      .cls-3 {
        fill: #0e3878;
      }

      .cls-2 {
        letter-spacing: .13em;
      }
    </style>
  </defs>
  <g id="Text">
    <g id="facebook">
      <path class="cls-3" d="M15.64,14.74v48h21.33v-21.31h-4.55v-2.85h4.55v-3.19c0-2.26.66-4.08,1.98-5.47,1.32-1.39,3.22-2.08,5.71-2.08.97,0,1.9.13,2.8.39.9.26,1.66.66,2.27,1.21l-1.16,2.56c-.48-.42-1.05-.73-1.69-.94-.65-.21-1.34-.31-2.08-.31-1.45,0-2.56.4-3.34,1.21-.77.81-1.16,2-1.16,3.58v3.05h7.84v2.85h-7.74v21.31h23.23V14.74H15.64Z"/>
      <text class="cls-2" transform="translate(24.65 10.2)"><tspan x="0" y="0">face</tspan></text>
      <text class="cls-2" transform="translate(54.07 66.69) rotate(-180)"><tspan x="0" y="0">face</tspan></text>
      <text class="cls-1" transform="translate(69.07 19.66) rotate(90)"><tspan x="0" y="0">book</tspan></text>
      <text class="cls-1" transform="translate(10.2 55.94) rotate(-90)"><tspan x="0" y="0">book</tspan></text>
    </g>
  </g>
</svg>